<svg width="30" height="30" viewBox="0 0 30 30" fill="none" xmlns="http://www.w3.org/2000/svg">
<path d="M15.0078 12.0234C15.6973 12.0234 16.3799 11.8876 17.0169 11.6238C17.6539 11.36 18.2326 10.9733 18.7201 10.4857C19.2076 9.99824 19.5943 9.41949 19.8582 8.78253C20.122 8.14557 20.2578 7.46288 20.2578 6.77344C20.2578 6.084 20.122 5.40131 19.8582 4.76435C19.5943 4.12739 19.2076 3.54863 18.7201 3.06113C18.2326 2.57362 17.6539 2.18691 17.0169 1.92307C16.3799 1.65923 15.6973 1.52344 15.0078 1.52344C13.6154 1.52344 12.2801 2.07656 11.2955 3.06113C10.3109 4.04569 9.75781 5.38105 9.75781 6.77344C9.75781 8.16582 10.3109 9.50118 11.2955 10.4857C12.2801 11.4703 13.6154 12.0234 15.0078 12.0234V12.0234ZM1.50781 27.6234V28.5234H28.5078V27.6234C28.5078 24.2634 28.5078 22.5834 27.8538 21.2994C27.2786 20.1705 26.3607 19.2527 25.2318 18.6774C23.9478 18.0234 22.2678 18.0234 18.9078 18.0234H11.1078C7.74781 18.0234 6.06781 18.0234 4.78381 18.6774C3.65489 19.2527 2.73704 20.1705 2.16181 21.2994C1.50781 22.5834 1.50781 24.2634 1.50781 27.6234Z" stroke="#4B6049" stroke-width="2" stroke-linecap="round" stroke-linejoin="round"/>
</svg>
